<svg xmlns="http://www.w3.org/2000/svg" width="189" height="106" viewBox="0 0 189 106" fill="none">
<rect width="189" height="106" fill="white"/>
<path d="M68.0067 46.5278H71.5278V60.221C71.5278 69.1276 67.5591 73.6112 60.0993 73.6112C52.6394 73.6112 48.6111 69.1276 48.6111 60.221V46.5278H52.1321V59.4333C52.1321 62.2204 52.1321 64.5228 52.8781 66.0981C54.1015 68.7943 56.8169 70.3394 60.0993 70.3394C62.5163 70.3394 64.605 69.4305 65.9776 68.0067C68.0365 65.7649 67.9769 63.2201 67.9769 59.4333V46.5278H68.0067Z" fill="#CC092F"/>
<path d="M81.2924 50.3624C83.2581 47.494 85.3728 45.8334 87.9938 45.8334C89.5128 45.8334 90.2872 46.3165 90.9723 46.7392L89.215 49.6075C88.8278 49.3962 88.1725 49.1244 87.4577 49.1244C85.0154 49.1244 82.8114 51.2682 81.8285 54.8913C81.3817 56.5822 81.2924 59.2996 81.2924 62.8926V72.9167H77.7778V46.558H81.2924V50.3624Z" fill="#CC092F"/>
<path d="M95.0931 59.7828C95.0931 65.5017 99.5027 70.5247 105.342 70.5247C110.676 70.5247 115.741 66.4398 115.741 59.8736C115.741 53.7612 111.242 49.1316 105.402 49.1316C99.4133 49.1316 95.0931 54.1243 95.0931 59.7828ZM115.473 46.5596H118.75V72.9757H115.473V68.4369C112.642 71.9167 109.037 73.6112 104.985 73.6112C97.3873 73.6112 91.6667 67.1962 91.6667 59.6618C91.6667 52.1575 97.5363 45.8334 105.104 45.8334C109.305 45.8334 112.91 47.6792 115.502 51.3708V46.5596H115.473Z" fill="#CC092F"/>
<path d="M19.7289 59.9079C19.7289 66.476 24.7234 70.5621 30.0449 70.5621C35.8124 70.5621 40.3015 65.5679 40.3015 59.8171C40.3015 54.1267 35.9908 49.1628 30.0449 49.1628C24.2477 49.1326 19.7289 53.7635 19.7289 59.9079ZM19.9964 51.3724C22.5829 47.6797 26.1504 45.8334 30.3125 45.8334C37.8934 45.8334 43.7501 52.1593 43.7501 59.6657C43.7501 67.1721 38.0123 73.6191 30.4017 73.6191C26.3287 73.6191 22.8207 71.9242 19.9964 68.4434V82.6389H16.6667V46.5598H19.9964V51.3724Z" fill="#CC092F"/>
<path d="M44.9158 28.9793C44.0736 28.3227 43.0811 27.5767 41.7577 26.6814C39.893 25.428 37.6072 23.906 34.9003 21.5484C33.9378 20.7128 32.825 19.9369 31.8926 19.3102C31.7422 19.2207 31.6821 19.0118 31.7723 18.8626C31.9828 18.5343 32.3137 17.9673 32.7949 17.2212C33.216 16.505 33.7574 15.6097 34.3589 14.6547C34.4792 14.4458 34.6296 14.2369 34.7499 13.9982C34.7499 13.9982 34.7499 13.9982 34.7499 13.9683C37.1861 9.99923 40.4945 4.59766 42.66 0.956835C43.051 0.330134 42.2089 -0.326406 41.6675 0.180923C37.9079 3.79191 32.0731 9.43221 29.1556 12.2673C28.915 12.506 28.7045 12.7149 28.4939 12.894C27.8022 13.5505 27.3811 13.9683 27.351 13.9982C27.4413 13.5804 27.4713 13.1327 27.4713 12.7149C27.4713 12.6552 27.4713 12.5956 27.4713 12.5657C27.4713 12.3867 27.4713 12.2076 27.4413 11.9987C27.3811 10.805 27.1104 9.22331 26.6292 8.41755C26.2081 9.67095 25.1253 10.7155 24.3434 11.8495C24.223 12.0285 24.1027 12.2076 24.0125 12.3867L23.9824 12.4463C23.8321 12.7746 23.6817 13.1029 23.6215 13.461C23.5012 13.1327 23.3809 12.8045 23.2907 12.4762L23.2606 12.4463C23.2004 12.2673 23.1403 12.0882 23.0801 11.9092C22.5989 10.3573 22.2681 8.74583 22.0575 7.04478C22.0575 7.04478 19.9522 8.38771 18.9596 12.4762C18.9296 12.5956 18.8995 12.7149 18.8694 12.8641V12.9238C18.7491 13.6997 18.4784 15.4903 18.6889 17.4898C17.937 16.6243 15.561 13.7296 15.561 13.7296C13.9368 14.2668 12.3728 14.983 10.9592 15.9081L10.8389 15.9678C9.75617 16.684 8.73357 17.4301 7.80119 18.2359C8.73357 19.0118 10.478 20.6233 11.4104 22.1751C9.24487 20.9217 7.25981 20.2055 6.08682 19.8175C3.83107 22.1453 2.14678 24.861 1.12417 27.9646C1.81594 28.3526 4.10176 29.6657 5.99659 31.3966C3.65061 30.74 1.57532 30.4117 0.522641 30.2625C0.131644 32.0829 -0.0488151 34.0526 0.0113382 36.1416C0.161722 42.7965 3.56038 49.7201 8.37265 53.8384C8.49295 53.9578 8.64334 54.0473 8.76365 54.1667C8.61326 53.8682 8.49295 53.54 8.37265 53.2415L8.34257 53.1222C7.74104 51.5703 7.16958 48.974 6.95905 47.3327C5.57552 35.485 10.3878 24.1149 20.8845 18.027C20.8545 17.9673 20.8545 17.9076 20.8244 17.8181C20.6439 17.0123 20.4334 15.8783 20.3732 14.6249C20.3732 13.9683 20.4033 13.3118 20.4935 12.6552V12.6254C20.5236 12.4762 20.5537 12.2971 20.5838 12.1479C20.7342 11.372 20.9748 10.6259 21.2755 9.93954C21.2755 10.6856 21.4259 11.3422 21.6064 11.9987C21.6665 12.1778 21.6966 12.327 21.7568 12.506C22.238 13.9385 22.9598 15.2217 23.3809 16.684C23.4711 16.9526 23.5313 17.251 23.5914 17.5196C24.0727 17.4599 24.5238 17.4301 25.005 17.4301C25.4863 17.4301 25.9675 17.2212 26.2983 16.8929L28.1631 14.9531L30.5091 12.506L39.5922 3.016C39.7125 2.89662 39.8629 3.04584 39.7727 3.16521L32.5242 13.073L31.7121 14.2071L28.9752 17.9374C28.6443 18.3851 28.7646 19.0118 29.2459 19.2804C29.2759 19.3102 31.9527 20.862 33.8476 22.4735C36.6146 24.861 38.9907 26.4426 40.8554 27.7259C42.1187 28.5615 43.0811 29.2777 43.833 29.8746C44.6451 30.5311 45.0361 31.9039 44.8256 32.8589C44.3143 35.0672 42.0284 36.7981 40.7953 36.9772C39.893 37.1264 38.6598 36.5892 36.4041 35.6641C33.5769 34.5301 32.1633 34.4107 29.2459 34.739C27.1405 34.9777 25.1554 34.7688 23.5914 33.4259C22.6891 32.6798 20.9146 31.128 21.3658 28.6809C21.3958 28.5316 21.1853 28.4421 21.0951 28.5913C20.3432 29.7552 19.2002 32.5903 22.2681 35.9028C22.7493 36.3206 23.2305 36.7384 23.802 37.007C24.3734 37.3055 25.0953 37.4845 25.7269 37.6039C26.3585 37.7531 27.0202 37.7829 27.6819 37.7829C28.9752 37.7829 30.2685 37.5442 31.5618 37.4248C33.0054 37.3054 34.419 37.3054 35.8026 37.7232C38.2388 38.4395 40.6148 39.5735 42.9307 37.9023C43.021 37.8426 45.5474 36.1416 46.3294 33.217C46.9008 31.6353 46.179 29.9343 44.9158 28.9793Z" fill="#CC092F"/>
<path d="M43.5744 32.618C43.6279 32.6684 43.7082 32.618 43.735 32.5677C43.8152 31.8878 43.6011 30.8554 42.477 30.5785C41.8615 30.4274 41.4065 31.0569 41.8347 31.4849L41.9418 31.5856C42.3967 31.9885 42.7714 32.0892 43.5744 32.618Z" fill="#CC092F"/>
<path d="M29.4008 25.6663C30.0545 25.7992 30.8567 25.4668 31.1836 24.5362C31.451 23.8049 30.9459 21.8771 29.0146 22.2759C28.5689 22.3756 28.0935 22.5751 27.7369 22.9407C27.4695 23.2066 27.1724 23.7052 27.0833 24.0043C27.6181 23.6719 27.9746 23.4393 28.5094 23.539C27.8558 24.5362 28.5689 25.5333 29.4008 25.6663Z" fill="#CC092F"/>
<path d="M16.6667 99.7015H18.0741V95.1647H21.5176V93.7918H18.0741V91.4338H21.5176V90.0609H16.6967V99.7015H16.6667ZM26.3985 99.9104C28.5544 99.9104 30.1414 98.2091 30.1414 96.1497C30.1414 94.0604 28.4945 92.389 26.3985 92.389C24.3024 92.389 22.6555 94.0604 22.6555 96.1497C22.6255 98.2091 24.2126 99.9104 26.3985 99.9104ZM26.3985 98.5972C25.051 98.5972 24.0628 97.5525 24.0628 96.1497C24.0628 94.7767 25.0809 93.6724 26.3985 93.6724C27.7459 93.6724 28.764 94.7767 28.764 96.1497C28.7341 97.5525 27.716 98.5972 26.3985 98.5972ZM35.1121 99.9104C37.268 99.9104 38.855 98.2091 38.855 96.1497C38.855 94.0604 37.2081 92.389 35.1121 92.389C33.016 92.389 31.3691 94.0604 31.3691 96.1497C31.3392 98.2091 32.9561 99.9104 35.1121 99.9104ZM35.1121 98.5972C33.7646 98.5972 32.7765 97.5525 32.7765 96.1497C32.7765 94.7767 33.7945 93.6724 35.1121 93.6724C36.4595 93.6724 37.4776 94.7767 37.4776 96.1497C37.4776 97.5525 36.4296 98.5972 35.1121 98.5972ZM43.6161 99.9104C44.6342 99.9104 45.4427 99.5224 46.1613 98.7464V99.7313H47.5387V89.8221H46.1613V93.6127C45.4726 92.777 44.6342 92.389 43.6161 92.389C41.6398 92.389 40.0827 94.0007 40.0827 96.1497C40.0827 98.239 41.6697 99.9104 43.6161 99.9104ZM43.8257 98.627C42.4782 98.627 41.4901 97.5227 41.4901 96.1198C41.4901 94.7767 42.4483 93.6425 43.8556 93.6425C45.2031 93.6425 46.2212 94.6872 46.2212 96.1198C46.2212 97.6719 45.1133 98.627 43.8257 98.627ZM53.4376 99.7015H54.8749V90.031H53.4376V99.7015ZM57.1207 99.7015H58.4981V96.2094C58.4981 94.5081 59.4563 93.6127 60.5343 93.6127C61.762 93.6127 62.0614 94.5379 62.0614 96.09V99.7015H63.4388V95.2244C63.4388 93.3441 62.3309 92.3591 60.8936 92.3591C59.9654 92.3591 59.2168 92.777 58.4981 93.553V92.568H57.1207V99.7015ZM65.3253 99.7015H66.7027V96.2094C66.7027 94.5081 67.6609 93.6127 68.7389 93.6127C69.9665 93.6127 70.266 94.5379 70.266 96.09V99.7015H71.6434V95.2244C71.6434 93.3441 70.5355 92.3591 69.0982 92.3591C68.1699 92.3591 67.4213 92.777 66.7027 93.553V92.568H65.3253V99.7015ZM76.8835 99.9104C79.0395 99.9104 80.6265 98.2091 80.6265 96.1497C80.6265 94.0604 78.9796 92.389 76.8835 92.389C74.7875 92.389 73.1406 94.0604 73.1406 96.1497C73.1406 98.2091 74.7276 99.9104 76.8835 99.9104ZM76.8835 98.5972C75.5361 98.5972 74.5479 97.5525 74.5479 96.1497C74.5479 94.7767 75.566 93.6724 76.8835 93.6724C78.231 93.6724 79.2491 94.7767 79.2491 96.1497C79.2491 97.5525 78.231 98.5972 76.8835 98.5972ZM86.6751 92.568L84.609 97.6122L82.513 92.568H81.0757L84.1898 99.7015H85.0282L88.1124 92.568H86.6751ZM92.065 99.9104C93.0831 99.9104 93.8916 99.5224 94.6102 98.7464V99.7313H95.9876V92.5979H94.6102V93.6425C93.9215 92.8068 93.0831 92.4188 92.065 92.4188C90.0887 92.4188 88.5316 94.0305 88.5316 96.1795C88.5017 98.239 90.1187 99.9104 92.065 99.9104ZM92.2746 98.627C90.9271 98.627 89.939 97.5227 89.939 96.1198C89.939 94.7767 90.8972 93.6425 92.3046 93.6425C93.652 93.6425 94.7001 94.6872 94.7001 96.1198C94.6701 97.6719 93.5622 98.627 92.2746 98.627ZM98.4131 99.7015H99.7905V93.7619H101.048V92.568H99.7905V89.9116H98.4131V92.568H97.3051V93.7619H98.4131V99.7015ZM102.935 91.5532C103.474 91.5532 103.893 91.1354 103.893 90.5981C103.893 90.0609 103.474 89.6132 102.935 89.6132C102.396 89.6132 101.976 90.031 101.976 90.5384C101.946 91.0757 102.366 91.5532 102.935 91.5532ZM102.246 99.7015H103.623V92.568H102.246V99.7015ZM108.953 99.9104C111.109 99.9104 112.696 98.2091 112.696 96.1497C112.696 94.0604 111.049 92.389 108.953 92.389C106.857 92.389 105.21 94.0604 105.21 96.1497C105.18 98.2091 106.797 99.9104 108.953 99.9104ZM108.953 98.5972C107.606 98.5972 106.618 97.5525 106.618 96.1497C106.618 94.7767 107.636 93.6724 108.953 93.6724C110.271 93.6724 111.319 94.7767 111.319 96.1497C111.319 97.5525 110.271 98.5972 108.953 98.5972ZM114.283 99.7015H115.661V96.2094C115.661 94.5081 116.619 93.6127 117.697 93.6127C118.925 93.6127 119.224 94.5379 119.224 96.09V99.7015H120.601V95.2244C120.601 93.3441 119.493 92.3591 118.056 92.3591C117.128 92.3591 116.379 92.777 115.661 93.553V92.568H114.283V99.7015ZM126.351 99.7015H127.728V93.7321H129.045V92.5382H127.728V91.792C127.728 91.0757 127.758 90.807 128.387 90.807C128.686 90.807 128.926 90.8966 129.135 90.9563V89.8221C128.836 89.7027 128.447 89.5833 127.968 89.5833C126.65 89.5833 126.351 90.2698 126.351 91.792V92.5382H125.572V93.7321H126.351V99.7015ZM133.567 99.9104C135.723 99.9104 137.31 98.2091 137.31 96.1497C137.31 94.0604 135.663 92.389 133.567 92.389C131.471 92.389 129.824 94.0604 129.824 96.1497C129.824 98.2091 131.411 99.9104 133.567 99.9104ZM133.567 98.5972C132.22 98.5972 131.231 97.5525 131.231 96.1497C131.231 94.7767 132.249 93.6724 133.567 93.6724C134.885 93.6724 135.933 94.7767 135.933 96.1497C135.933 97.5525 134.914 98.5972 133.567 98.5972ZM138.897 99.7015H140.274V96.0303C140.274 94.4782 140.843 93.6127 141.592 93.6127C141.772 93.6127 141.981 93.7022 142.101 93.7321L142.61 92.5979C142.43 92.4486 142.191 92.3591 141.802 92.3591C141.143 92.3591 140.574 92.7471 140.125 93.5231V92.568H138.867V99.7015H138.897ZM152.671 94.926V96.2989H155.635C155.186 97.8211 153.989 98.5972 152.432 98.5972C150.186 98.5972 148.479 96.8959 148.479 94.8663C148.479 92.8068 150.126 91.1951 152.312 91.1951C153.509 91.1951 154.617 91.7025 155.576 92.6576L156.624 91.6726C155.456 90.5086 154.168 89.8519 152.312 89.8519C149.168 89.8519 147.042 92.1502 147.042 94.8961C147.042 97.6122 149.108 100 152.402 100C155.306 100 157.252 98.0898 157.252 94.9857H152.671V94.926ZM162.193 99.9104C164.349 99.9104 165.936 98.2091 165.936 96.1497C165.936 94.0604 164.289 92.389 162.193 92.389C160.097 92.389 158.45 94.0604 158.45 96.1497C158.45 98.2091 160.037 99.9104 162.193 99.9104ZM162.193 98.5972C160.846 98.5972 159.858 97.5525 159.858 96.1497C159.858 94.7767 160.876 93.6724 162.193 93.6724C163.541 93.6724 164.559 94.7767 164.559 96.1497C164.559 97.5525 163.541 98.5972 162.193 98.5972ZM170.907 99.9104C173.063 99.9104 174.65 98.2091 174.65 96.1497C174.65 94.0604 173.003 92.389 170.907 92.389C168.811 92.389 167.164 94.0604 167.164 96.1497C167.164 98.2091 168.751 99.9104 170.907 99.9104ZM170.907 98.5972C169.559 98.5972 168.571 97.5525 168.571 96.1497C168.571 94.7767 169.589 93.6724 170.907 93.6724C172.254 93.6724 173.272 94.7767 173.272 96.1497C173.272 97.5525 172.254 98.5972 170.907 98.5972ZM179.411 99.9104C180.429 99.9104 181.237 99.5224 181.956 98.7464V99.7313H183.333V89.8221H181.956V93.6127C181.267 92.777 180.429 92.389 179.411 92.389C177.435 92.389 175.877 94.0007 175.877 96.1497C175.877 98.239 177.464 99.9104 179.411 99.9104ZM179.65 98.627C178.303 98.627 177.315 97.5227 177.315 96.1198C177.315 94.7767 178.273 93.6425 179.68 93.6425C181.028 93.6425 182.046 94.6872 182.046 96.1198C182.016 97.6719 180.908 98.627 179.65 98.627Z" fill="#CC092F"/>
<path d="M141.727 59.8583C141.727 65.6315 146.083 70.3467 152.083 70.3467C158.053 70.3467 162.469 65.6315 162.469 59.8583C162.469 53.9944 157.748 49.128 152.083 49.128C146.388 49.0978 141.727 53.9944 141.727 59.8583ZM165.972 59.7978C165.972 67.2939 160.124 73.6112 152.083 73.6112C144.073 73.6112 138.194 67.2939 138.194 59.7978C138.194 52.2413 144.103 45.8334 152.083 45.8334C160.063 45.8334 165.972 52.2413 165.972 59.7978Z" fill="#CC092F"/>
<path d="M170.108 67.445C171.75 69.3493 173.539 70.377 175.475 70.377C177.996 70.377 180.196 68.4727 180.196 65.9942C180.196 64.4527 179.316 63.0018 178.084 62.3066C172.19 58.9213 169.199 57.4704 169.199 52.8458C169.199 48.6746 172.337 45.8334 176.237 45.8334C179.023 45.8334 181.163 47.2238 183.333 49.4L181.222 51.6368C179.668 50.0953 178.143 49.0978 176.061 49.0978C173.95 49.0978 172.19 50.6393 172.19 52.6342C172.19 53.9642 173.011 55.4755 174.155 56.1707C180.049 59.7072 183.333 61.0371 183.333 65.8128C183.333 69.9538 180.254 73.6112 175.621 73.6112C172.777 73.6112 169.874 72.2812 168.056 69.8329L170.108 67.445Z" fill="#CC092F"/>
<path d="M136.107 70.7338C135.56 70.8237 134.952 70.8837 134.314 70.8837C131.398 70.8837 130.395 69.5949 130.395 66.8674V49.5736H135.894V46.6064H130.395V36.8055H126.962V46.6064H122.222V49.5736H126.962V59.9139V66.8674C126.962 70.9136 128.602 73.6111 133.524 73.6111C134.77 73.6111 135.833 73.4612 136.806 73.2215L136.107 70.7338Z" fill="#CC092F"/>
</svg>